<?xml version="1.0" encoding="utf-8"?>
<!-- Generator: Adobe Illustrator 24.1.0, SVG Export Plug-In . SVG Version: 6.00 Build 0)  -->
<svg version="1.1" id="compound" xmlns="http://www.w3.org/2000/svg" xmlns:xlink="http://www.w3.org/1999/xlink" x="0px" y="0px"
	 viewBox="0 0 500 500" style="enable-background:new 0 0 500 500;" xml:space="preserve">
<style type="text/css">
	.st0{fill-rule:evenodd;clip-rule:evenodd;fill:#00D395;}
</style>
<path class="st0" d="M71.9,388.6c-12.4-7.6-19.9-21-19.9-35.5v-80.7c0-3.1,0.8-6.1,2.4-8.7c4.8-8.3,15.4-11.1,23.7-6.2l182.2,106.2
	c10.6,6.2,17.2,17.6,17.2,30v83.6c0,3.8-1,7.6-3,10.9c-6,9.8-18.8,12.9-28.6,6.9L71.9,388.6z M343.4,235.4
	c10.6,6.2,17.2,17.6,17.2,30V435c0,5-2.7,9.7-7.1,12.1l-39.9,22.5c-0.5,0.3-1,0.5-1.6,0.7V376c0-12.2-6.4-23.5-16.9-29.8l-160-95.7
	V144.1c0-3.1,0.8-6.1,2.4-8.7c4.8-8.3,15.4-11.1,23.7-6.2L343.4,235.4z M423.2,110c10.7,6.2,17.3,17.7,17.3,30v247.9
	c0,5.1-2.8,9.8-7.3,12.2l-37.8,20.4V248c0-12.2-6.4-23.4-16.8-29.7L215,120.1V19.2c0-3.1,0.8-6.1,2.3-8.7
	c4.8-8.3,15.4-11.1,23.7-6.3L423.2,110z"/>
</svg>
