<?xml version="1.0" encoding="utf-8"?>
<!-- Generator: Adobe Illustrator 26.1.0, SVG Export Plug-In . SVG Version: 6.00 Build 0)  -->
<svg version="1.1" id="Layer_1" xmlns:ev="http://www.w3.org/2001/xml-events"
	 xmlns="http://www.w3.org/2000/svg" xmlns:xlink="http://www.w3.org/1999/xlink" x="0px" y="0px" viewBox="0 0 500 500"
	 style="enable-background:new 0 0 500 500;" xml:space="preserve">
<style type="text/css">
	.st0{fill:#E2761B;stroke:#E2761B;stroke-width:1.9271;stroke-linecap:round;stroke-linejoin:round;}
	.st1{fill:#E4761B;stroke:#E4761B;stroke-width:1.9271;stroke-linecap:round;stroke-linejoin:round;}
	.st2{fill:#D7C1B3;stroke:#D7C1B3;stroke-width:1.9271;stroke-linecap:round;stroke-linejoin:round;}
	.st3{fill:#233447;stroke:#233447;stroke-width:1.9271;stroke-linecap:round;stroke-linejoin:round;}
	.st4{fill:#CD6116;stroke:#CD6116;stroke-width:1.9271;stroke-linecap:round;stroke-linejoin:round;}
	.st5{fill:#E4751F;stroke:#E4751F;stroke-width:1.9271;stroke-linecap:round;stroke-linejoin:round;}
	.st6{fill:#F6851B;stroke:#F6851B;stroke-width:1.9271;stroke-linecap:round;stroke-linejoin:round;}
	.st7{fill:#C0AD9E;stroke:#C0AD9E;stroke-width:1.9271;stroke-linecap:round;stroke-linejoin:round;}
	.st8{fill:#161616;stroke:#161616;stroke-width:1.9271;stroke-linecap:round;stroke-linejoin:round;}
	.st9{fill:#763D16;stroke:#763D16;stroke-width:1.9271;stroke-linecap:round;stroke-linejoin:round;}
</style>
<polygon class="st0" points="471.2,16.6 279.5,159 314.9,75 "/>
<g>
	<polygon class="st1" points="28.6,16.6 218.8,160.4 185.1,75 	"/>
	<polygon class="st1" points="402.2,346.7 351.2,425 460.4,455 491.8,348.5 	"/>
	<polygon class="st1" points="8.3,348.5 39.6,455 148.8,425 97.8,346.7 	"/>
	<polygon class="st1" points="142.7,214.5 112.2,260.6 220.7,265.4 216.9,148.8 	"/>
	<polygon class="st1" points="357.1,214.5 282,147.5 279.5,265.4 387.8,260.6 	"/>
	<polygon class="st1" points="148.8,425 214,393.2 157.7,349.2 	"/>
	<polygon class="st1" points="285.8,393.2 351.2,425 342.1,349.2 	"/>
</g>
<g>
	<polygon class="st2" points="351.2,425 285.8,393.2 291,435.8 290.5,453.7 	"/>
	<polygon class="st2" points="148.8,425 209.5,453.7 209.1,435.8 214,393.2 	"/>
</g>
<polygon class="st3" points="210.5,321.1 156.2,305.1 194.5,287.6 "/>
<polygon class="st3" points="289.3,321.1 305.3,287.6 343.8,305.1 "/>
<g>
	<polygon class="st4" points="148.8,425 158.1,346.7 97.8,348.5 	"/>
	<polygon class="st4" points="341.9,346.7 351.2,425 402.2,348.5 	"/>
	<polygon class="st4" points="387.8,260.6 279.5,265.4 289.5,321.1 305.5,287.6 344,305.1 	"/>
	<polygon class="st4" points="156.2,305.1 194.7,287.6 210.5,321.1 220.7,265.4 112.2,260.6 	"/>
</g>
<g>
	<polygon class="st5" points="112.2,260.6 157.7,349.2 156.2,305.1 	"/>
	<polygon class="st5" points="344,305.1 342.1,349.2 387.8,260.6 	"/>
	<polygon class="st5" points="220.7,265.4 210.5,321.1 223.2,386.8 226.1,300.3 	"/>
	<polygon class="st5" points="279.5,265.4 274.3,300.1 276.6,386.8 289.5,321.1 	"/>
</g>
<polygon class="st6" points="289.5,321.1 276.6,386.8 285.8,393.2 342.1,349.2 344,305.1 "/>
<polygon class="st6" points="156.2,305.1 157.7,349.2 214,393.2 223.2,386.8 210.5,321.1 "/>
<polygon class="st7" points="290.5,453.7 291,435.8 286.2,431.5 213.6,431.5 209.1,435.8 209.5,453.7 148.8,425 170,442.3 
	213,472.2 286.8,472.2 330,442.3 351.2,425 "/>
<polygon class="st8" points="285.8,393.2 276.6,386.8 223.2,386.8 214,393.2 209.1,435.8 213.6,431.5 286.2,431.5 291,435.8 "/>
<g>
	<polygon class="st9" points="479.3,168.3 495.7,89.7 471.2,16.6 285.8,154.2 357.1,214.5 457.9,244 480.3,218 470.6,211.1 
		486.1,197 474.1,187.7 489.5,176 	"/>
	<polygon class="st9" points="4.3,89.7 20.7,168.3 10.3,176 25.7,187.7 13.9,197 29.4,211.1 19.7,218 41.9,244 142.7,214.5 
		214,154.2 28.6,16.6 	"/>
</g>
<polygon class="st6" points="457.9,244 357.1,214.5 387.8,260.6 342.1,349.2 402.2,348.5 491.8,348.5 "/>
<polygon class="st6" points="142.7,214.5 41.9,244 8.3,348.5 97.8,348.5 157.7,349.2 112.2,260.6 "/>
<polygon class="st6" points="279.5,265.4 285.8,154.2 315.1,75 185.1,75 214,154.2 220.7,265.4 223,300.5 223.2,386.8 276.6,386.8 
	277,300.5 "/>
</svg>
