<?xml version="1.0" encoding="utf-8"?>
<!-- Generator: Adobe Illustrator 26.1.0, SVG Export Plug-In . SVG Version: 6.00 Build 0)  -->
<svg version="1.1" id="Layer_1" xmlns="http://www.w3.org/2000/svg" xmlns:xlink="http://www.w3.org/1999/xlink" x="0px" y="0px"
	 viewBox="0 0 500 500" style="enable-background:new 0 0 500 500;" xml:space="preserve">
<style type="text/css">
	.st0{fill:#3B99FC;}
</style>
<path id="WalletConnect_00000011712241659293910850000006461923615613654160_" class="st0" d="M102.4,156.6
	c81.5-79.8,213.7-79.8,295.3,0l9.8,9.6c4.1,4,4.1,10.5,0,14.5l-33.6,32.9c-2,2-5.3,2-7.4,0L353,200.3c-56.9-55.7-149.1-55.7-206,0
	l-14.5,14.2c-2,2-5.3,2-7.4,0l-33.6-32.9c-4.1-4-4.1-10.5,0-14.5L102.4,156.6z M467.1,224.5l29.9,29.3c4.1,4,4.1,10.5,0,14.5
	L362.2,400.1c-4.1,4-10.7,4-14.8,0c0,0,0,0,0,0l-95.6-93.6c-1-1-2.7-1-3.7,0c0,0,0,0,0,0l-95.6,93.6c-4.1,4-10.7,4-14.8,0
	c0,0,0,0,0,0L3.1,268.2c-4.1-4-4.1-10.5,0-14.5l29.9-29.3c4.1-4,10.7-4,14.8,0l95.6,93.6c1,1,2.7,1,3.7,0c0,0,0,0,0,0l95.6-93.6
	c4.1-4,10.7-4,14.8,0c0,0,0,0,0,0l95.6,93.6c1,1,2.7,1,3.7,0l95.6-93.6C456.4,220.5,463,220.5,467.1,224.5z"/>
</svg>
